# xmcd CD database file
#
# Track frame offsets:
#	150
#	15287
#	27237
#	38340
#	69655
#	81162
#	99737
#	112437
#	129665
#	145440
#	168897
#	185414
#	202032
#	230819
#	242254
#	257454
#	273877
#	296504
#	313644
#	334489
#
# Disc length: 4621 seconds
#
# Revision: 1
# Processed by: cddbd v1.5.1PL0 Copyright (c) Steve Scherf et al.
# Submitted via: CDex 1.50Beta1
#
DISCID=20120b14
DTITLE=James Cotton - 100% Cotton/High Compression
DYEAR=2004
DGENRE=Blues
TTITLE0=Boogie Thing
TTITLE1=One More Mile
TTITLE2=All Walks Of Life
TTITLE3=Cheeper Creeps Again
TTITLE4=Rockett 88
TTITLE5=How Long Can A Fool Go Wrong
TTITLE6=I Don't Know
TTITLE7=Burner
TTITLE8='Fatuation
TTITLE9=Fever
TTITLE10=Diggin' My Potatoes
TTITLE11=Ying Yang
TTITLE12=23 Hours To Long
TTITLE13=No More Doggin'
TTITLE14=No Cuttin' Loose
TTITLE15=Ain't Doin' Too Bad
TTITLE16=Sunny Boy
TTITLE17=Superharp
TTITLE18=Easy Loving
TTITLE19=High Compression
EXTD=YEAR: 2004
EXTT0=
EXTT1=
EXTT2=
EXTT3=
EXTT4=
EXTT5=
EXTT6=
EXTT7=
EXTT8=
EXTT9=
EXTT10=
EXTT11=
EXTT12=
EXTT13=
EXTT14=
EXTT15=
EXTT16=
EXTT17=
EXTT18=
EXTT19=
PLAYORDER=
